<mxfile host="app.diagrams.net" modified="2024-05-07T08:11:09.663Z" agent="Mozilla/5.0 (Windows NT 10.0; Win64; x64; rv:125.0) Gecko/20100101 Firefox/125.0" version="24.2.9" etag="ccK2DKf_Og12V8a8XF5W" type="github">
  <diagram name="Page-1" id="0gi3Kc4GK7O-WRNExrdD">
    <mxGraphModel>
      <root>
        <mxCell id="0" />
        <mxCell id="1" parent="0" />
      </root>
    </mxGraphModel>
  </diagram>
</mxfile>
